HIERARCHY
ROOT Hips
{
  OFFSET 110.851 94.6018 204.793
  CHANNELS 6 Xposition Yposition Zposition Zrotation Xrotation Yrotation
  JOINT RightUpLeg
  {
    OFFSET -8.9458 -8.66707 0.101652
    CHANNELS 3 Zrotation Xrotation Yrotation
    JOINT RightLeg
    {
      OFFSET 0 -44.4227 1.3727
      CHANNELS 3 Zrotation Xrotation Yrotation
      JOINT RightFoot
      {
        OFFSET 0.253549 -42.0924 -1.46059
        CHANNELS 3 Zrotation Xrotation Yrotation
        JOINT RightToes
        {
          OFFSET 0.04 -4.41509 8.4991
          CHANNELS 3 Zrotation Xrotation Yrotation
          End Site
          {
            OFFSET -0.08 -0.137448 9.77979
          }
        }
      }
    }
  }
  JOINT Spine
  {
    OFFSET 0 11.8905 0
    CHANNELS 3 Zrotation Xrotation Yrotation
    JOINT Spine1
    {
      OFFSET 0 25.6574 0.127663
      CHANNELS 3 Zrotation Xrotation Yrotation
      JOINT HEad
      {
        OFFSET 0 8.73416 0.011341
        CHANNELS 3 Zrotation Xrotation Yrotation
        End Site
        {
          OFFSET -0.29 12.7742 2.51395
        }
      }
      JOINT LeftShoulder1
      {
        OFFSET 8.99 -0.362252 -0.22
        CHANNELS 3 Zrotation Xrotation Yrotation
        JOINT LeftArm
        {
          OFFSET 10.2827 -0.00338 0.322123
          CHANNELS 3 Zrotation Xrotation Yrotation
          JOINT LeftForeArm
          {
            OFFSET 32.7669 0.099144 -1.42434
            CHANNELS 3 Zrotation Xrotation Yrotation
            JOINT LeftHand
            {
              OFFSET 27.5643 0.085362 1.02216
              CHANNELS 3 Zrotation Xrotation Yrotation
              End Site
              {
                OFFSET 16.7443 -0.6 1.50291
              }
            }
          }
        }
      }
      JOINT RightShoulder
      {
        OFFSET -8.99 -0.362252 -0.22
        CHANNELS 3 Zrotation Xrotation Yrotation
        JOINT RightArm
        {
          OFFSET -10.2827 -0.00338 0.322123
          CHANNELS 3 Zrotation Xrotation Yrotation
          JOINT RightForeArm
          {
            OFFSET -32.8971 0.099144 -1.42434
            CHANNELS 3 Zrotation Xrotation Yrotation
            JOINT RightHand
            {
              OFFSET -27.4921 0.085362 1.02216
              CHANNELS 3 Zrotation Xrotation Yrotation
              End Site
              {
                OFFSET -16.6312 -0.6 1.50291
              }
            }
          }
        }
      }
    }
  }
  JOINT LeftUpLeg
  {
    OFFSET 8.9458 -8.66707 0.101652
    CHANNELS 3 Zrotation Xrotation Yrotation
    JOINT LeftLeg
    {
      OFFSET 0 -44.4227 1.3727
      CHANNELS 3 Zrotation Xrotation Yrotation
      JOINT LeftFoot
      {
        OFFSET -0.253549 -42.0924 -1.46059
        CHANNELS 3 Zrotation Xrotation Yrotation
        JOINT LeftToes
        {
          OFFSET -0.04 -4.41509 8.4991
          CHANNELS 3 Zrotation Xrotation Yrotation
          End Site
          {
            OFFSET 0.08 -0.047448 9.77979
          }
        }
      }
    }
  }
}
MOTION
Frames:	7
Frame Time:	0.0166667
88.4101 96.4287 -2.06398 0.415005 3.89517 -178.431 4.49999 15.7781 4.28966 1.77561 27.4914 -17.377 4.50507 -12.0951 0.106231 -0.36798 -7.11915 1.46429 6.68067 1.23442 0.820666 5.18443 5.48794 -0.228196 -4.99462 20.901 -8.40791 1.41634e-015 0 7.95139e-016 -89.4307 -83.9531 -10.935 11.9035 8.76964 -0.346262 0.368473 9.90896 -0.00117928 -5.39121 0.458674 8.76193 134.554 -37.6242 63.4307 -9.61473 5.94379 5.95032 -0.369625 9.91382 0.00119889 1.11792 -23.466 -9.91282 0.508803 4.79924 19.9197 1.61132 -3.88168 0.0580874 -4.653 -0.517381 3.22919 
87.7746 96.5251 -5.17042 -0.417664 3.99533 -178.514 2.87595 16.6162 3.93112 1.8705 29.4814 -17.048 5.12939 -10.5551 0.101261 -2.36275 -5.50453 3.65309 5.93066 1.40285 0.166512 4.48869 4.82312 -0.62349 -4.88455 21.4533 -7.21334 -8.69683e-016 -7.95139e-016 -1.98785e-016 -63.4382 -83.6119 15.6298 11.3727 8.92818 -0.128331 0.368473 9.90896 -0.00117928 -5.68697 0.451805 9.49795 135.304 -37.8381 62.5874 -9.26809 5.92838 6.73165 -0.369625 9.91382 0.00119889 -0.409713 -23.0236 -9.87663 0.693302 6.99271 21.0861 3.13662 -0.977517 -0.0470289 -5.09175 -0.289151 3.61537 
87.1328 96.6984 -8.27431 -1.42454 4.13286 -178.425 1.07036 16.9905 3.60762 2.13227 31.9672 -17.1479 5.7151 -7.97602 0.0276195 -4.88649 -3.72127 6.33116 5.09671 1.61766 -0.636087 3.44426 4.07902 -1.10279 -4.4863 22.0651 -6.02832 1.86671e-015 -3.97569e-016 -1.49089e-016 -44.3172 -82.1826 35.2176 10.6743 9.14076 0.158088 0.368473 9.90896 -0.00117928 -5.51939 0.497739 10.206 136.345 -38.1685 62.1425 -9.55051 5.82715 7.01312 -0.369625 9.91382 0.00119889 -2.10876 -22.5901 -8.91179 0.858262 9.52176 21.5361 4.1563 2.55285 -0.142576 -5.0374 -0.224702 3.5979 
86.5152 96.9448 -11.2832 -2.29876 4.40921 -178.271 -0.51793 16.6721 3.24463 2.52402 35.0696 -17.4558 6.0131 -3.0283 -0.19619 -7.71398 -2.8244 9.41916 4.38561 1.90261 -1.39659 2.27348 3.29034 -1.59109 -3.43929 22.8591 -5.3192 -1.41323e-015 1.98785e-016 9.93923e-017 -32.4343 -80.9313 47.2233 10.3627 9.24958 0.285954 0.368473 9.90896 -0.00117928 -4.47141 0.645156 10.6181 137.125 -38.4557 62.1349 -10.3452 5.74491 6.37842 -0.369625 9.91382 0.00119889 -3.04139 -21.7987 -7.47319 0.525829 11.541 20.2375 2.87123 5.09882 -0.111551 -3.9202 -0.798986 2.62184 
85.9078 97.1788 -14.2031 -3.29698 4.67774 -177.951 -2.19572 15.5801 2.70107 3.04471 39.0314 -17.8997 6.30764 2.76226 -0.495279 -10.0229 -1.38204 11.8736 3.78188 2.18867 -2.20836 0.751215 2.63557 -2.07048 -2.23042 23.4033 -4.76564 7.92033e-016 9.93923e-017 -3.97569e-016 -25.0169 -80.1088 54.4044 10.2498 9.30735 0.332539 0.368473 9.90896 -0.00117928 -3.19355 0.815392 10.8594 138.069 -38.7285 62.3362 -11.46 5.60451 5.54458 -0.369625 9.91382 0.00119889 -4.09277 -20.9597 -6.30554 0.121595 13.6208 18.7142 1.31601 6.58018 -0.0552263 -2.62611 -1.58084 1.44605 
85.3042 97.2682 -17.0224 -4.67394 4.81382 -177.268 -4.34073 13.4517 1.77211 3.86193 44.4371 -18.5149 6.96316 8.53946 -0.878892 -10.7347 2.24117 12.4222 3.35811 2.41984 -3.19482 -1.44758 2.28515 -2.53941 -1.18531 23.1678 -4.18284 8.06398e-016 -9.93923e-017 -7.95139e-016 -20.8857 -80.2044 57.742 10.3936 9.2974 0.273989 0.368473 9.90896 -0.00117928 -2.20009 0.950173 11.0045 139.55 -39.0027 62.5125 -12.6645 5.33046 5.26296 -0.369625 9.91382 0.00119889 -5.97363 -20.4247 -6.85802 -0.438216 16.2825 18.6905 1.35143 5.99455 -0.0529654 -1.9538 -2.39286 0.730014 
84.7109 97.3499 -19.702 -6.1226 4.85184 -176.616 -6.49915 10.5898 0.618596 4.35456 50.4447 -18.933 7.38201 13.6224 -1.2094 -10.3756 6.38537 11.7901 3.04402 2.58057 -4.07479 -3.76561 2.29703 -2.87427 -0.38265 22.5516 -3.645 -9.65969e-016 2.48481e-016 7.95139e-016 -19.9228 -81.0023 57.7507 10.6067 9.26972 0.187057 0.368473 9.90896 -0.00117928 -1.47507 1.03838 10.9363 141.14 -39.1449 62.6882 -13.9447 5.03089 5.01338 -0.369625 9.91382 0.00119889 -7.98327 -19.8087 -7.36395 -0.856642 18.6354 18.7406 1.75258 4.49772 -0.0560448 -1.45593 -2.94299 0.216167 
